<svg width="212" height="573" viewBox="0 0 212 573" fill="none" xmlns="http://www.w3.org/2000/svg">
<path d="M143.366 50.9893C180.386 6.01918 226.167 -5.88467 282.245 2.49211C311.597 6.90094 342.046 14.6164 363.732 35.1175C383.884 54.0755 393.523 81.6307 407.98 105.218C425.504 134.316 450.695 158.565 466.248 188.765C514.658 282.673 486.181 429.488 431.419 514.137C420.247 531.552 406.666 548.306 388.923 558.887C350.37 581.813 301.959 571.893 257.93 563.296C209.52 554.037 160.233 546.762 110.946 543.897C71.5172 541.692 38.2213 532.654 17.4115 494.738C0.1064 463.436 -1.64601 425.96 0.982605 390.249C9.52561 271.872 63.8504 160.549 133.29 63.9953C136.575 59.5865 139.861 55.1777 143.366 50.9893Z" fill="white"/>
</svg>
