<svg width="154" height="415" viewBox="0 0 154 415" fill="none" xmlns="http://www.w3.org/2000/svg">
<path d="M-97.3443 36.9294C-70.5786 4.35944 -37.4777 -4.26202 3.06685 1.80493C24.2894 4.99807 46.3039 10.586 61.9832 25.4341C76.5539 39.1646 83.5225 59.1217 93.9754 76.2049C106.646 97.2796 124.859 114.842 136.104 136.715C171.105 204.729 150.516 311.06 110.922 372.368C102.845 384.981 93.0251 397.115 80.1966 404.778C52.3222 421.383 17.3208 414.198 -14.513 407.971C-49.5144 401.266 -85.1493 395.997 -120.784 393.922C-149.292 392.325 -173.365 385.779 -188.411 358.318C-200.923 335.647 -202.19 308.505 -200.29 282.641C-194.113 196.905 -154.835 116.279 -104.63 46.3491C-102.254 43.156 -99.8784 39.9629 -97.3443 36.9294Z" fill="white"/>
</svg>
